{
	"asset":{
		"generator":"Khronos glTF Blender I/O v5.1.19",
		"version":"2.0"
	},
	"scene":0,
	"scenes":[
		{
			"name":"Scene",
			"nodes":[
				0
			]
		}
	],
	"nodes":[
		{
			"mesh":0,
			"name":"Challenger"
		}
	],
	"materials":[
		{
			"doubleSided":true,
			"name":"Texture",
			"pbrMetallicRoughness":{
				"baseColorTexture":{
					"index":0
				},
				"metallicFactor":0,
				"roughnessFactor":0
			}
		}
	],
	"meshes":[
		{
			"name":"Cube.010",
			"primitives":[
				{
					"attributes":{
						"POSITION":0,
						"NORMAL":1,
						"TEXCOORD_0":2
					},
					"indices":3,
					"material":0
				}
			]
		}
	],
	"textures":[
		{
			"sampler":0,
			"source":0
		}
	],
	"images":[
		{
			"mimeType":"image/png",
			"name":"Challenger_Orange.png",
			"uri":"../../Assets/Challenger/Blend/textures/Challenger_Orange.png"
		}
	],
	"accessors":[
		{
			"bufferView":0,
			"componentType":5126,
			"count":2124,
			"max":[
				5.251113414764404,
				2.2006003856658936,
				7.128330707550049
			],
			"min":[
				-5.251113414764404,
				-0.8214511871337891,
				-3.0519156455993652
			],
			"type":"VEC3"
		},
		{
			"bufferView":1,
			"componentType":5126,
			"count":2124,
			"type":"VEC3"
		},
		{
			"bufferView":2,
			"componentType":5126,
			"count":2124,
			"type":"VEC2"
		},
		{
			"bufferView":3,
			"componentType":5123,
			"count":5244,
			"type":"SCALAR"
		}
	],
	"bufferViews":[
		{
			"buffer":0,
			"byteLength":25488,
			"byteOffset":0,
			"target":34962
		},
		{
			"buffer":0,
			"byteLength":25488,
			"byteOffset":25488,
			"target":34962
		},
		{
			"buffer":0,
			"byteLength":16992,
			"byteOffset":50976,
			"target":34962
		},
		{
			"buffer":0,
			"byteLength":10488,
			"byteOffset":67968,
			"target":34963
		}
	],
	"samplers":[
		{
			"magFilter":9729,
			"minFilter":9987
		}
	],
	"buffers":[
		{
			"byteLength":78456,
			"uri":"Challenger-48df020a38a063da87fb0470e0bda6b2.bin"
		}
	]
}
