{
	"asset":{
		"generator":"Khronos glTF Blender I/O v5.1.19",
		"version":"2.0"
	},
	"extensionsUsed":[
		"KHR_materials_specular",
		"KHR_materials_ior"
	],
	"scene":0,
	"scenes":[
		{
			"name":"Scene",
			"nodes":[
				0
			]
		}
	],
	"nodes":[
		{
			"mesh":0,
			"name":"Imperial"
		}
	],
	"materials":[
		{
			"doubleSided":true,
			"extensions":{
				"KHR_materials_specular":{
					"specularFactor":0
				},
				"KHR_materials_ior":{
					"ior":1.4500000476837158
				}
			},
			"name":"Texture",
			"pbrMetallicRoughness":{
				"baseColorTexture":{
					"index":0
				},
				"metallicFactor":0,
				"roughnessFactor":0
			}
		}
	],
	"meshes":[
		{
			"name":"Cube.028",
			"primitives":[
				{
					"attributes":{
						"POSITION":0,
						"NORMAL":1,
						"TEXCOORD_0":2
					},
					"indices":3,
					"material":0
				}
			]
		}
	],
	"textures":[
		{
			"sampler":0,
			"source":0
		}
	],
	"images":[
		{
			"mimeType":"image/png",
			"name":"Imperial_Orange.png",
			"uri":"../../Assets/Imperial/Blend/textures/Imperial_Orange.png"
		}
	],
	"accessors":[
		{
			"bufferView":0,
			"componentType":5126,
			"count":3673,
			"max":[
				3.864760398864746,
				1.9892470836639404,
				11.879201889038086
			],
			"min":[
				-3.864760398864746,
				-1.314197063446045,
				-6.669183254241943
			],
			"type":"VEC3"
		},
		{
			"bufferView":1,
			"componentType":5126,
			"count":3673,
			"type":"VEC3"
		},
		{
			"bufferView":2,
			"componentType":5126,
			"count":3673,
			"type":"VEC2"
		},
		{
			"bufferView":3,
			"componentType":5123,
			"count":7926,
			"type":"SCALAR"
		}
	],
	"bufferViews":[
		{
			"buffer":0,
			"byteLength":44076,
			"byteOffset":0,
			"target":34962
		},
		{
			"buffer":0,
			"byteLength":44076,
			"byteOffset":44076,
			"target":34962
		},
		{
			"buffer":0,
			"byteLength":29384,
			"byteOffset":88152,
			"target":34962
		},
		{
			"buffer":0,
			"byteLength":15852,
			"byteOffset":117536,
			"target":34963
		}
	],
	"samplers":[
		{
			"magFilter":9729,
			"minFilter":9987
		}
	],
	"buffers":[
		{
			"byteLength":133388,
			"uri":"Imperial-06cd7189e7205f9c6c7f95468936e6a9.bin"
		}
	]
}
