{
	"asset":{
		"generator":"Khronos glTF Blender I/O v5.1.19",
		"version":"2.0"
	},
	"extensionsUsed":[
		"KHR_materials_specular",
		"KHR_materials_ior"
	],
	"scene":0,
	"scenes":[
		{
			"name":"Scene",
			"nodes":[
				0
			]
		}
	],
	"nodes":[
		{
			"mesh":0,
			"name":"Insurgent"
		}
	],
	"materials":[
		{
			"doubleSided":true,
			"extensions":{
				"KHR_materials_specular":{
					"specularFactor":0
				},
				"KHR_materials_ior":{
					"ior":1.4500000476837158
				}
			},
			"name":"Texture",
			"pbrMetallicRoughness":{
				"baseColorTexture":{
					"index":0
				},
				"metallicFactor":0,
				"roughnessFactor":0
			}
		}
	],
	"meshes":[
		{
			"name":"Cylinder.001",
			"primitives":[
				{
					"attributes":{
						"POSITION":0,
						"NORMAL":1,
						"TEXCOORD_0":2
					},
					"indices":3,
					"material":0
				}
			]
		}
	],
	"textures":[
		{
			"sampler":0,
			"source":0
		}
	],
	"images":[
		{
			"mimeType":"image/png",
			"name":"Insurgent_Orange.png",
			"uri":"../../Assets/Insurgent/Blend/textures/Insurgent_Orange.png"
		}
	],
	"accessors":[
		{
			"bufferView":0,
			"componentType":5126,
			"count":7644,
			"max":[
				2.7827606201171875,
				1.9387714862823486,
				7.668166160583496
			],
			"min":[
				-2.7827606201171875,
				-0.9317505955696106,
				-3.2823309898376465
			],
			"type":"VEC3"
		},
		{
			"bufferView":1,
			"componentType":5126,
			"count":7644,
			"type":"VEC3"
		},
		{
			"bufferView":2,
			"componentType":5126,
			"count":7644,
			"type":"VEC2"
		},
		{
			"bufferView":3,
			"componentType":5123,
			"count":24876,
			"type":"SCALAR"
		}
	],
	"bufferViews":[
		{
			"buffer":0,
			"byteLength":91728,
			"byteOffset":0,
			"target":34962
		},
		{
			"buffer":0,
			"byteLength":91728,
			"byteOffset":91728,
			"target":34962
		},
		{
			"buffer":0,
			"byteLength":61152,
			"byteOffset":183456,
			"target":34962
		},
		{
			"buffer":0,
			"byteLength":49752,
			"byteOffset":244608,
			"target":34963
		}
	],
	"samplers":[
		{
			"magFilter":9729,
			"minFilter":9987
		}
	],
	"buffers":[
		{
			"byteLength":294360,
			"uri":"Insurgent-7e591d5f025920823ac3dbc71578040e.bin"
		}
	]
}
