{
	"asset":{
		"generator":"Khronos glTF Blender I/O v5.1.19",
		"version":"2.0"
	},
	"extensionsUsed":[
		"KHR_materials_specular",
		"KHR_materials_ior"
	],
	"scene":0,
	"scenes":[
		{
			"name":"Scene",
			"nodes":[
				0
			]
		}
	],
	"nodes":[
		{
			"mesh":0,
			"name":"Omen"
		}
	],
	"materials":[
		{
			"doubleSided":true,
			"extensions":{
				"KHR_materials_specular":{
					"specularFactor":0
				},
				"KHR_materials_ior":{
					"ior":1.4500000476837158
				}
			},
			"name":"Texture",
			"pbrMetallicRoughness":{
				"baseColorTexture":{
					"index":0
				},
				"metallicFactor":0,
				"roughnessFactor":0
			}
		}
	],
	"meshes":[
		{
			"name":"Cube.021",
			"primitives":[
				{
					"attributes":{
						"POSITION":0,
						"NORMAL":1,
						"TEXCOORD_0":2
					},
					"indices":3,
					"material":0
				}
			]
		}
	],
	"textures":[
		{
			"sampler":0,
			"source":0
		}
	],
	"images":[
		{
			"mimeType":"image/png",
			"name":"Omen_Orange.png",
			"uri":"../../Assets/Omen/Blend/textures/Omen_Orange.png"
		}
	],
	"accessors":[
		{
			"bufferView":0,
			"componentType":5126,
			"count":1779,
			"max":[
				6.392205238342285,
				2.076692819595337,
				8.658550262451172
			],
			"min":[
				-6.392205238342285,
				-1.0619138479232788,
				-3.9228954315185547
			],
			"type":"VEC3"
		},
		{
			"bufferView":1,
			"componentType":5126,
			"count":1779,
			"type":"VEC3"
		},
		{
			"bufferView":2,
			"componentType":5126,
			"count":1779,
			"type":"VEC2"
		},
		{
			"bufferView":3,
			"componentType":5123,
			"count":4278,
			"type":"SCALAR"
		}
	],
	"bufferViews":[
		{
			"buffer":0,
			"byteLength":21348,
			"byteOffset":0,
			"target":34962
		},
		{
			"buffer":0,
			"byteLength":21348,
			"byteOffset":21348,
			"target":34962
		},
		{
			"buffer":0,
			"byteLength":14232,
			"byteOffset":42696,
			"target":34962
		},
		{
			"buffer":0,
			"byteLength":8556,
			"byteOffset":56928,
			"target":34963
		}
	],
	"samplers":[
		{
			"magFilter":9729,
			"minFilter":9987
		}
	],
	"buffers":[
		{
			"byteLength":65484,
			"uri":"Omen-fc6057d8fe3c72e827a58fa40fa7cdb6.bin"
		}
	]
}
