{
	"asset":{
		"generator":"Khronos glTF Blender I/O v5.1.19",
		"version":"2.0"
	},
	"extensionsUsed":[
		"KHR_materials_specular",
		"KHR_materials_ior"
	],
	"scene":0,
	"scenes":[
		{
			"name":"Scene",
			"nodes":[
				0
			]
		}
	],
	"nodes":[
		{
			"mesh":0,
			"name":"Pancake"
		}
	],
	"materials":[
		{
			"doubleSided":true,
			"extensions":{
				"KHR_materials_specular":{
					"specularFactor":0
				},
				"KHR_materials_ior":{
					"ior":1.4500000476837158
				}
			},
			"name":"Texture",
			"pbrMetallicRoughness":{
				"baseColorTexture":{
					"index":0
				},
				"metallicFactor":0,
				"roughnessFactor":0
			}
		}
	],
	"meshes":[
		{
			"name":"Cube.008",
			"primitives":[
				{
					"attributes":{
						"POSITION":0,
						"NORMAL":1,
						"TEXCOORD_0":2
					},
					"indices":3,
					"material":0
				}
			]
		}
	],
	"textures":[
		{
			"sampler":0,
			"source":0
		}
	],
	"images":[
		{
			"mimeType":"image/png",
			"name":"Pancake_Orange.png",
			"uri":"../../Assets/Pancake/Blend/textures/Pancake_Orange.png"
		}
	],
	"accessors":[
		{
			"bufferView":0,
			"componentType":5126,
			"count":3508,
			"max":[
				5.251112937927246,
				1.6240941286087036,
				4.9803667068481445
			],
			"min":[
				-5.251111030578613,
				-0.9750590920448303,
				-3.2524118423461914
			],
			"type":"VEC3"
		},
		{
			"bufferView":1,
			"componentType":5126,
			"count":3508,
			"type":"VEC3"
		},
		{
			"bufferView":2,
			"componentType":5126,
			"count":3508,
			"type":"VEC2"
		},
		{
			"bufferView":3,
			"componentType":5123,
			"count":8064,
			"type":"SCALAR"
		}
	],
	"bufferViews":[
		{
			"buffer":0,
			"byteLength":42096,
			"byteOffset":0,
			"target":34962
		},
		{
			"buffer":0,
			"byteLength":42096,
			"byteOffset":42096,
			"target":34962
		},
		{
			"buffer":0,
			"byteLength":28064,
			"byteOffset":84192,
			"target":34962
		},
		{
			"buffer":0,
			"byteLength":16128,
			"byteOffset":112256,
			"target":34963
		}
	],
	"samplers":[
		{
			"magFilter":9729,
			"minFilter":9987
		}
	],
	"buffers":[
		{
			"byteLength":128384,
			"uri":"Pancake-49eada3d434df852f80264fa5e5feb57.bin"
		}
	]
}
