{
	"asset":{
		"generator":"Khronos glTF Blender I/O v5.1.19",
		"version":"2.0"
	},
	"extensionsUsed":[
		"KHR_materials_specular",
		"KHR_materials_ior"
	],
	"scene":0,
	"scenes":[
		{
			"name":"Scene",
			"nodes":[
				0
			]
		}
	],
	"nodes":[
		{
			"mesh":0,
			"name":"Spitfire"
		}
	],
	"materials":[
		{
			"doubleSided":true,
			"extensions":{
				"KHR_materials_specular":{
					"specularFactor":0
				},
				"KHR_materials_ior":{
					"ior":1.4500000476837158
				}
			},
			"name":"Texture",
			"pbrMetallicRoughness":{
				"baseColorTexture":{
					"index":0
				},
				"metallicFactor":0,
				"roughnessFactor":0
			}
		}
	],
	"meshes":[
		{
			"name":"Cube.017",
			"primitives":[
				{
					"attributes":{
						"POSITION":0,
						"NORMAL":1,
						"TEXCOORD_0":2
					},
					"indices":3,
					"material":0
				}
			]
		}
	],
	"textures":[
		{
			"sampler":0,
			"source":0
		}
	],
	"images":[
		{
			"mimeType":"image/png",
			"name":"Spitfire_Orange.png",
			"uri":"../../Assets/Spitfire/Blend/textures/Spitfire_Orange.png"
		}
	],
	"accessors":[
		{
			"bufferView":0,
			"componentType":5126,
			"count":4102,
			"max":[
				5.261844158172607,
				1.0298198461532593,
				4.393892765045166
			],
			"min":[
				-5.261844158172607,
				-2.025360107421875,
				-3.1394150257110596
			],
			"type":"VEC3"
		},
		{
			"bufferView":1,
			"componentType":5126,
			"count":4102,
			"type":"VEC3"
		},
		{
			"bufferView":2,
			"componentType":5126,
			"count":4102,
			"type":"VEC2"
		},
		{
			"bufferView":3,
			"componentType":5123,
			"count":10536,
			"type":"SCALAR"
		}
	],
	"bufferViews":[
		{
			"buffer":0,
			"byteLength":49224,
			"byteOffset":0,
			"target":34962
		},
		{
			"buffer":0,
			"byteLength":49224,
			"byteOffset":49224,
			"target":34962
		},
		{
			"buffer":0,
			"byteLength":32816,
			"byteOffset":98448,
			"target":34962
		},
		{
			"buffer":0,
			"byteLength":21072,
			"byteOffset":131264,
			"target":34963
		}
	],
	"samplers":[
		{
			"magFilter":9729,
			"minFilter":9987
		}
	],
	"buffers":[
		{
			"byteLength":152336,
			"uri":"Spitfire-35581cf85bc11d906e48b54c561a0f19.bin"
		}
	]
}
