{
	"asset":{
		"generator":"Khronos glTF Blender I/O v5.1.19",
		"version":"2.0"
	},
	"extensionsUsed":[
		"KHR_materials_specular",
		"KHR_materials_ior"
	],
	"scene":0,
	"scenes":[
		{
			"name":"Scene",
			"nodes":[
				0
			]
		}
	],
	"nodes":[
		{
			"mesh":0,
			"name":"Striker"
		}
	],
	"materials":[
		{
			"doubleSided":true,
			"extensions":{
				"KHR_materials_specular":{
					"specularFactor":0
				},
				"KHR_materials_ior":{
					"ior":1.4500000476837158
				}
			},
			"name":"Texture",
			"pbrMetallicRoughness":{
				"baseColorTexture":{
					"index":0
				},
				"metallicFactor":0,
				"roughnessFactor":0
			}
		}
	],
	"meshes":[
		{
			"name":"Spaceship2_Spaceship2",
			"primitives":[
				{
					"attributes":{
						"POSITION":0,
						"NORMAL":1,
						"TEXCOORD_0":2,
						"TANGENT":3
					},
					"indices":4,
					"material":0
				}
			]
		}
	],
	"textures":[
		{
			"sampler":0,
			"source":0
		}
	],
	"images":[
		{
			"mimeType":"image/png",
			"name":"Striker_Orange.png",
			"uri":"../../Assets/Striker/Blend/textures/Striker_Orange.png"
		}
	],
	"accessors":[
		{
			"bufferView":0,
			"componentType":5126,
			"count":5024,
			"max":[
				2.516808271408081,
				1.2518599033355713,
				4.897094249725342
			],
			"min":[
				-2.516808271408081,
				-1.4327850341796875,
				-3.5290727615356445
			],
			"type":"VEC3"
		},
		{
			"bufferView":1,
			"componentType":5126,
			"count":5024,
			"type":"VEC3"
		},
		{
			"bufferView":2,
			"componentType":5126,
			"count":5024,
			"type":"VEC2"
		},
		{
			"bufferView":3,
			"componentType":5126,
			"count":5024,
			"type":"VEC4"
		},
		{
			"bufferView":4,
			"componentType":5123,
			"count":13590,
			"type":"SCALAR"
		}
	],
	"bufferViews":[
		{
			"buffer":0,
			"byteLength":60288,
			"byteOffset":0,
			"target":34962
		},
		{
			"buffer":0,
			"byteLength":60288,
			"byteOffset":60288,
			"target":34962
		},
		{
			"buffer":0,
			"byteLength":40192,
			"byteOffset":120576,
			"target":34962
		},
		{
			"buffer":0,
			"byteLength":80384,
			"byteOffset":160768,
			"target":34962
		},
		{
			"buffer":0,
			"byteLength":27180,
			"byteOffset":241152,
			"target":34963
		}
	],
	"samplers":[
		{
			"magFilter":9729,
			"minFilter":9987
		}
	],
	"buffers":[
		{
			"byteLength":268332,
			"uri":"Striker-f5375d9df0893f3ae6afd3091e2dadca.bin"
		}
	]
}
