{
	"asset":{
		"generator":"Khronos glTF Blender I/O v5.1.19",
		"version":"2.0"
	},
	"extensionsUsed":[
		"KHR_materials_specular",
		"KHR_materials_ior"
	],
	"scene":0,
	"scenes":[
		{
			"name":"Scene",
			"nodes":[
				0
			]
		}
	],
	"nodes":[
		{
			"mesh":0,
			"name":"Zenith"
		}
	],
	"materials":[
		{
			"doubleSided":true,
			"extensions":{
				"KHR_materials_specular":{
					"specularFactor":0
				},
				"KHR_materials_ior":{
					"ior":1.4500000476837158
				}
			},
			"name":"Texture",
			"pbrMetallicRoughness":{
				"baseColorTexture":{
					"index":0
				},
				"metallicFactor":0,
				"roughnessFactor":0
			}
		}
	],
	"meshes":[
		{
			"name":"Cube.016",
			"primitives":[
				{
					"attributes":{
						"POSITION":0,
						"NORMAL":1,
						"TEXCOORD_0":2
					},
					"indices":3,
					"material":0
				}
			]
		}
	],
	"textures":[
		{
			"sampler":0,
			"source":0
		}
	],
	"images":[
		{
			"mimeType":"image/png",
			"name":"Zenith_Orange.png",
			"uri":"../../Assets/Zenith/Blend/textures/Zenith_Orange.png"
		}
	],
	"accessors":[
		{
			"bufferView":0,
			"componentType":5126,
			"count":2569,
			"max":[
				2.8139469623565674,
				2.7274088859558105,
				8.533771514892578
			],
			"min":[
				-2.8139469623565674,
				-2.7025909423828125,
				-3.534728527069092
			],
			"type":"VEC3"
		},
		{
			"bufferView":1,
			"componentType":5126,
			"count":2569,
			"type":"VEC3"
		},
		{
			"bufferView":2,
			"componentType":5126,
			"count":2569,
			"type":"VEC2"
		},
		{
			"bufferView":3,
			"componentType":5123,
			"count":6456,
			"type":"SCALAR"
		}
	],
	"bufferViews":[
		{
			"buffer":0,
			"byteLength":30828,
			"byteOffset":0,
			"target":34962
		},
		{
			"buffer":0,
			"byteLength":30828,
			"byteOffset":30828,
			"target":34962
		},
		{
			"buffer":0,
			"byteLength":20552,
			"byteOffset":61656,
			"target":34962
		},
		{
			"buffer":0,
			"byteLength":12912,
			"byteOffset":82208,
			"target":34963
		}
	],
	"samplers":[
		{
			"magFilter":9729,
			"minFilter":9987
		}
	],
	"buffers":[
		{
			"byteLength":95120,
			"uri":"Zenith-2562ac762b8eead3897c8f7c7057cd5d.bin"
		}
	]
}
